HIERARCHY
ROOT Hips
{
	OFFSET 0.00000 0.00000 0.00000
	CHANNELS 6 Xposition Yposition Zposition Zrotation Yrotation Xrotation 
	JOINT LHipJoint
	{
		OFFSET 0 0 0
		CHANNELS 3 Zrotation Yrotation Xrotation
		JOINT LeftUpLeg
		{
			OFFSET 1.62964 -1.40469 0.78906
			CHANNELS 3 Zrotation Yrotation Xrotation
			JOINT LeftLeg
			{
				OFFSET 2.29640 -6.30932 0.00000
				CHANNELS 3 Zrotation Yrotation Xrotation
				JOINT LeftFoot
				{
					OFFSET 2.29451 -6.30412 0.00000
					CHANNELS 3 Zrotation Yrotation Xrotation
					JOINT LeftToeBase
					{
						OFFSET 0.03611 -0.09921 1.56387
						CHANNELS 3 Zrotation Yrotation Xrotation
						End Site
						{
							OFFSET 0.00000 -0.00000 0.80291
						}
					}
				}
			}
		}
	}
	JOINT RHipJoint
	{
		OFFSET 0 0 0
		CHANNELS 3 Zrotation Yrotation Xrotation
		JOINT RightUpLeg
		{
			OFFSET -1.73712 -1.40469 0.78906
			CHANNELS 3 Zrotation Yrotation Xrotation
			JOINT RightLeg
			{
				OFFSET -2.28137 -6.26801 0.00000
				CHANNELS 3 Zrotation Yrotation Xrotation
				JOINT RightFoot
				{
					OFFSET -2.28681 -6.28298 0.00000
					CHANNELS 3 Zrotation Yrotation Xrotation
					JOINT RightToeBase
					{
						OFFSET -0.15927 -0.43759 1.61103
						CHANNELS 3 Zrotation Yrotation Xrotation
						End Site
						{
							OFFSET -0.00000 -0.00000 0.84630
						}
					}
				}
			}
		}
	}
	JOINT LowerBack
	{
		OFFSET 0 0 0
		CHANNELS 3 Zrotation Yrotation Xrotation
		JOINT Spine
		{
			OFFSET -0.04227 2.04338 -0.00225
			CHANNELS 3 Zrotation Yrotation Xrotation
			JOINT Spine1
			{
				OFFSET -0.02148 2.04482 -0.04273
				CHANNELS 3 Zrotation Yrotation Xrotation
				JOINT Neck
				{
					OFFSET 0 0 0
					CHANNELS 3 Zrotation Yrotation Xrotation
					JOINT Neck1
					{
						OFFSET 0.09180 1.44629 0.19359
						CHANNELS 3 Zrotation Yrotation Xrotation
						JOINT Head
						{
							OFFSET 0.00887 1.40645 0.14750
							CHANNELS 3 Zrotation Yrotation Xrotation
							End Site
							{
								OFFSET -0.00669 1.50671 0.03707
							}
						}
					}
				}
				JOINT LeftShoulder
				{
					OFFSET 0 0 0
					CHANNELS 3 Zrotation Yrotation Xrotation
					JOINT LeftArm
					{
						OFFSET 2.17674 1.86763 -0.06520
						CHANNELS 3 Zrotation Yrotation Xrotation
						JOINT LeftForeArm
						{
							OFFSET 4.65776 -0.00000 0.00000
							CHANNELS 3 Zrotation Yrotation Xrotation
							JOINT LeftHand
							{
								OFFSET 3.55539 -0.00000 0.00000
								CHANNELS 3 Zrotation Yrotation Xrotation
								JOINT LeftFingerBase
								{
									OFFSET 0 0 0
									CHANNELS 3 Zrotation Yrotation Xrotation
									JOINT LeftHandIndex1
									{
										OFFSET 0.70726 -0.00000 0.00000
										CHANNELS 3 Zrotation Yrotation Xrotation
										End Site
										{
											OFFSET 0.57022 -0.00000 0.00000
										}
									}
								}
								JOINT LThumb
								{
									OFFSET 0 0 0
									CHANNELS 3 Zrotation Yrotation Xrotation
									End Site
									{
										OFFSET 0.57892 -0.00000 0.57892
									}
								}
							}
						}
					}
				}
				JOINT RightShoulder
				{
					OFFSET 0 0 0
					CHANNELS 3 Zrotation Yrotation Xrotation
					JOINT RightArm
					{
						OFFSET -2.80694 1.55459 -0.32496
						CHANNELS 3 Zrotation Yrotation Xrotation
						JOINT RightForeArm
						{
							OFFSET -4.71925 -0.00000 -0.00000
							CHANNELS 3 Zrotation Yrotation Xrotation
							JOINT RightHand
							{
								OFFSET -3.56990 -0.00000 0.00000
								CHANNELS 3 Zrotation Yrotation Xrotation
								JOINT RightFingerBase
								{
									OFFSET 0 0 0
									CHANNELS 3 Zrotation Yrotation Xrotation
									JOINT RightHandIndex1
									{
										OFFSET -0.50776 -0.00000 0.00000
										CHANNELS 3 Zrotation Yrotation Xrotation
										End Site
										{
											OFFSET -0.40937 -0.00000 0.00000
										}
									}
								}
								JOINT RThumb
								{
									OFFSET 0 0 0
									CHANNELS 3 Zrotation Yrotation Xrotation
									End Site
									{
										OFFSET -0.41562 -0.00000 0.41562
									}
								}
							}
						}
					}
				}
			}
		}
	}
}
MOTION
Frames: 6
Frame Time: .0083333
15.2810 16.5228 20.8952 172.1490 -10.1918 -153.0540 0.0000 0.0000 0.0000 0.0781 -28.9732 -68.1786 9.7766 17.2823 58.7392 0.4323 -6.5480 -11.8841 5.6824 -14.1134 -43.6935 0.0000 0.0000 0.0000 8.2057 14.0277 -16.6741 -0.3252 -3.6651 10.1364 -1.7167 -7.3341 -28.3189 -0.6655 5.2171 -14.5288 -7.0038 -0.6267 -17.3013 -0.9283 0.7924 3.1984 3.1586 -0.1561 13.3170 -1.1637 -0.6571 -4.5616 4.0269 -3.1518 22.4220 1.2004 -1.7750 7.7159 0.0000 -0.0000 0.0000 -81.6842 -1.9703 25.6962 16.3122 -25.9421 -3.7815 -0.0000 -0.0000 1.8232 23.2968 -12.3812 -5.2750 -7.1250 0.0000 -0.0000 -2.7354 16.5478 1.8452 0.0000 -0.0000 0.0000 86.1645 0.9982 13.8248 -23.2997 34.4149 -7.3070 0.0000 -0.0000 -4.4121 -15.7895 -49.7298 12.1753 7.1250 -0.0000 -0.0000 -11.3412 10.7198 -170.7790
15.2274 16.5036 20.8880 172.5260 -9.6088 -151.7850 0.0000 0.0000 0.0000 0.9461 -28.4272 -70.2964 10.0474 17.4364 59.6466 0.4383 -6.6072 -11.9690 5.2461 -13.6557 -41.8752 0.0000 0.0000 0.0000 7.7797 14.7450 -18.7126 -0.3845 -3.9822 11.0265 -1.7270 -7.1287 -28.2619 -0.7398 5.4946 -15.3247 -6.7785 -0.2734 -18.1675 -1.1224 1.2781 2.7231 2.9618 0.1032 13.2295 -1.0257 -1.1101 -4.3148 4.3757 -3.9958 22.7583 1.2227 -2.1629 7.8148 0.0000 0.0000 0.0000 -81.2201 -1.8966 26.3730 16.2931 -25.9165 -3.7732 -0.0000 -0.0000 1.6607 23.1247 -12.7373 -5.3788 -7.1250 0.0000 -0.0000 -2.8726 16.1821 1.9607 0.0000 0.0000 0.0000 86.4865 0.5765 13.4307 -23.4950 34.6257 -7.4177 0.0000 -0.0000 -4.4031 -15.9142 -51.2519 12.5369 7.1250 -0.0000 -0.0000 -11.4580 9.2693 -170.3367
15.1732 16.5076 20.8409 172.5570 -9.3737 -151.8870 0.0000 0.0000 0.0000 0.5549 -28.4236 -69.9938 10.1171 17.4752 59.8790 0.4531 -6.6995 -12.1676 4.9409 -13.3169 -40.5667 0.0000 0.0000 0.0000 7.7043 15.0558 -17.7488 -0.3206 -3.6394 10.0643 -1.6332 -7.6199 -27.9301 -0.7990 5.7052 -15.9315 -6.9296 -0.2465 -17.8712 -1.1384 1.3389 2.9351 3.0425 0.1151 13.2939 -1.0933 -1.2222 -4.7842 4.3260 -4.0282 22.4595 1.2128 -2.1548 7.8013 0.0000 0.0000 0.0000 -81.2328 -2.2263 26.2957 16.2547 -25.8648 -3.7564 -0.0000 -0.0000 1.7587 23.0341 -12.9522 -5.4437 -7.1250 0.0000 -0.0000 -2.9462 15.9605 2.0252 0.0000 0.0000 0.0000 86.3422 0.8580 13.5788 -23.5462 34.6806 -7.4467 0.0000 -0.0000 -4.4552 -15.8440 -51.1607 12.4651 7.1250 -0.0000 -0.0000 -11.4775 9.3711 -170.3435
15.1183 16.5072 20.8006 172.6150 -9.2324 -151.7180 0.0000 0.0000 0.0000 0.4264 -28.4696 -70.1498 10.2047 17.5234 60.1704 0.4884 -6.5792 -12.5810 5.1773 -13.5807 -41.5833 0.0000 0.0000 0.0000 7.4572 15.0088 -18.6480 -0.4164 -4.1418 11.4759 -1.7379 -7.3432 -28.4676 -0.9772 6.2930 -17.6370 -7.1009 -0.2253 -17.8446 -1.1517 1.4031 2.9253 3.1422 0.1330 13.2580 -0.9758 -1.1871 -4.7985 4.2329 -3.9045 22.1464 1.1747 -2.0821 7.6922 0.0000 0.0000 0.0000 -81.1484 -2.1682 26.4645 16.3266 -25.9615 -3.7878 -0.0000 -0.0000 1.6791 23.1453 -12.7247 -5.3790 -7.1250 0.0000 -0.0000 -2.8577 16.1935 1.9498 0.0000 0.0000 0.0000 86.2764 0.7877 13.6475 -23.6487 34.7906 -7.5052 0.0000 -0.0000 -4.5950 -15.9011 -50.7876 12.4471 7.1250 -0.0000 -0.0000 -11.4101 9.7040 -170.4806
15.0565 16.5020 20.7587 172.7430 -8.9698 -151.3870 0.0000 0.0000 0.0000 0.3649 -28.3777 -70.4788 10.2949 17.5724 60.4695 0.5334 -6.3677 -13.0898 5.6210 -14.0508 -43.4412 0.0000 0.0000 0.0000 7.2277 15.0460 -18.9873 -0.4256 -4.1870 11.6032 -1.7019 -7.5329 -28.3434 -1.1740 6.8774 -19.3526 -7.2226 -0.2086 -18.0877 -1.1226 1.4705 2.9057 3.2672 0.1488 13.3701 -1.0014 -1.1392 -4.8173 4.1779 -3.7907 22.0134 1.1712 -2.0283 7.6472 -0.0000 0.0000 0.0000 -81.1934 -2.2010 26.3837 16.3605 -26.0070 -3.8026 -0.0000 -0.0000 1.7157 23.1040 -12.8602 -5.4242 -7.1250 0.0000 -0.0000 -2.8932 16.0520 1.9829 -0.0000 0.0000 0.0000 86.0700 0.7875 13.8951 -23.7321 34.8797 -7.5528 0.0000 -0.0000 -4.7025 -15.9252 -52.0299 12.6770 7.1250 -0.0000 -0.0000 -11.5450 8.5439 -170.0896
15.0029 16.5297 20.6807 172.2340 -9.5750 -152.8090 0.0000 0.0000 0.0000 -1.3782 -29.1948 -67.7773 10.1807 17.5102 60.0906 0.5513 -6.9495 -13.3659 5.6389 -14.0690 -43.5147 0.0000 0.0000 0.0000 7.5041 14.7430 -14.9187 -0.2407 -3.1574 8.7173 -1.4670 -9.1930 -27.8460 -1.1984 6.9459 -19.5550 -7.8237 -0.3746 -16.5760 -1.1668 1.2717 3.4581 3.4761 0.0092 13.1321 -0.8116 -1.2271 -4.9328 4.0741 -3.8851 21.9087 1.0970 -2.0578 7.6315 -0.0000 -0.0000 0.0000 -81.0925 -2.4404 26.3679 16.2498 -25.8582 -3.7543 -0.0000 -0.0000 1.9155 22.9501 -13.1929 -5.5201 -7.1250 0.0000 -0.0000 -3.0165 15.7108 2.0899 -0.0000 -0.0000 0.0000 86.1166 0.8193 13.7992 -23.7156 34.8621 -7.5434 0.0000 -0.0000 -4.6647 -16.0011 -54.5576 13.1500 7.1250 -0.0000 -0.0000 -11.8326 6.1927 -169.2761
